:SAMPLES-PER-SECOND 30
:FULLY-SPECIFIED
:DEGREES
492
root  -59.5793 41.2592 -22.5569 -5.6277 -1.20322 0.569046
RightUpLeg  8.08603 -9.03538 -8.07891
RightLeg  6.27776 -3.82846 2.32124
RightFoot  -5.25299 -0.0868412 0.806188
RightToes  0.00048216 0.542163 -0.142577
Spine  -0.277851 3.76504 2.87993
Spine1  11.6662 5.32024 -4.39124
HEad  -53.2765 -10.4314 12.3208
LeftShoulder1  9.07459 -15.5492 -41.2947
LeftArm  -2.28096 22.1318 -27.8756
LeftForeArm  32.6261 -22.5177 -3.31048
LeftHand  -0.25398 0.0180481 5.50724
RightShoulder  0.949206 2.86748 7.34608
RightArm  -24.6422 61.0572 47.6835
RightForeArm  174.997 56.9363 165.081
RightHand  -2.82973 7.91663 -24.7381
LeftUpLeg  9.12838 5.27839 3.1149
LeftLeg  3.13505 12.9636 -2.6344
LeftFoot  -4.4611 -0.00027753 0.671715
LeftToes  1.06247e-005 4.65855e-005 -8.18501e-006
493
root  -59.5954 41.2589 -22.5539 -5.65935 -1.16592 0.55011
RightUpLeg  8.15232 -9.01363 -8.03726
RightLeg  6.24117 -3.88883 2.32446
RightFoot  -5.25185 -0.0864621 0.798203
RightToes  0.00048216 0.542163 -0.142577
Spine  -0.425217 3.72309 3.20925
Spine1  11.835 5.42421 -4.91183
HEad  -54.0112 -10.3736 12.5088
LeftShoulder1  8.95829 -15.5471 -40.7262
LeftArm  -2.43541 22.0926 -28.2
LeftForeArm  32.8211 -22.4707 -3.30175
LeftHand  -0.25398 0.0180481 5.50724
RightShoulder  0.931796 2.71967 7.42832
RightArm  -24.9301 61.3363 47.6525
RightForeArm  175.367 56.9496 165.104
RightHand  -2.80924 7.86406 -24.6601
LeftUpLeg  9.15203 5.28694 3.15938
LeftLeg  3.16268 12.91 -2.60642
LeftFoot  -4.46566 0.00243609 0.623989
LeftToes  1.06247e-005 4.65855e-005 -8.18501e-006
494
root  -59.6149 41.2571 -22.5632 -5.74959 -1.14851 0.527069
RightUpLeg  8.23222 -9.03255 -8.01512
RightLeg  6.26951 -3.88037 2.35553
RightFoot  -5.27213 -0.0835611 0.751346
RightToes  0.00048216 0.542163 -0.142577
Spine  -0.433369 3.68585 3.45341
Spine1  11.9378 5.49745 -5.30095
HEad  -54.4725 -10.3751 12.7797
LeftShoulder1  8.87989 -15.5714 -40.2819
LeftArm  -2.22203 22.1158 -28.4331
LeftForeArm  33.2872 -22.7111 -3.28166
LeftHand  -0.25398 0.0180481 5.50724
RightShoulder  0.909753 2.5825 7.39987
RightArm  -25.3232 61.5815 47.5952
RightForeArm  175.081 56.968 165.071
RightHand  -2.84177 7.80879 -25.0298
LeftUpLeg  9.20859 5.31592 3.22992
LeftLeg  3.22186 12.8371 -2.57819
LeftFoot  -4.49572 0.00725873 0.542891
LeftToes  1.06247e-005 4.65855e-005 -8.18501e-006
495
root  -59.6356 41.2544 -22.5827 -5.90187 -1.1295 0.522766
RightUpLeg  8.34743 -9.08039 -8.02707
RightLeg  6.33377 -3.84515 2.39225
RightFoot  -5.29969 -0.0772962 0.652555
RightToes  0.00048216 0.542163 -0.142577
Spine  -0.277322 3.68147 3.45349
Spine1  11.9047 5.49964 -5.31284
HEad  -54.5868 -10.3558 12.9491
LeftShoulder1  8.90095 -15.6314 -40.2474
LeftArm  -1.90163 22.1498 -28.3927
LeftForeArm  33.6663 -22.9631 -3.27065
LeftHand  -0.25398 0.0180481 5.50724
RightShoulder  0.885934 2.49045 7.21132
RightArm  -25.7666 61.7258 47.4426
RightForeArm  174.277 56.9462 165.016
RightHand  -2.91513 7.84885 -25.5717
LeftUpLeg  9.32617 5.34419 3.28908
LeftLeg  3.25727 12.7666 -2.56202
LeftFoot  -4.49884 0.010265 0.489432
LeftToes  1.06247e-005 4.65855e-005 -8.18501e-006
496
root  -59.6541 41.2536 -22.6002 -6.04816 -1.07529 0.536591
RightUpLeg  8.47882 -9.09439 -8.03668
RightLeg  6.36156 -3.87895 2.39019
RightFoot  -5.31358 -0.0729969 0.584549
RightToes  0.00048216 0.542163 -0.142577
Spine  -0.114249 3.69802 3.29922
Spine1  11.829 5.45194 -5.06685
HEad  -54.498 -10.4159 12.933
LeftShoulder1  8.96297 -15.6731 -40.4573
LeftArm  -1.72541 22.1343 -28.219
LeftForeArm  33.6869 -23.0502 -3.27383
LeftHand  -0.25398 0.0180481 5.50724
RightShoulder  0.862798 2.4248 6.95693
RightArm  -26.1048 61.751 47.267
RightForeArm  173.784 56.9226 164.988
RightHand  -2.97507 7.91458 -25.9502
LeftUpLeg  9.45967 5.35074 3.31552
LeftLeg  3.24079 12.696 -2.55508
LeftFoot  -4.46159 0.0105748 0.477292
LeftToes  1.06247e-005 4.65855e-005 -8.18501e-006
497
root  -59.6686 41.2528 -22.6115 -6.1328 -0.990097 0.54306
RightUpLeg  8.57308 -9.05039 -8.00799
RightLeg  6.35099 -3.98618 2.347
RightFoot  -5.31837 -0.0754002 0.620864
RightToes  0.00048216 0.542163 -0.142577
Spine  0.00247601 3.70497 3.15221
Spine1  11.7095 5.39194 -4.82529
HEad  -54.3358 -10.6039 12.786
LeftShoulder1  8.98742 -15.6812 -40.5588
LeftArm  -1.65241 22.156 -28.1711
LeftForeArm  33.5825 -23.1178 -3.28236
LeftHand  -0.25398 0.0180481 5.50724
RightShoulder  0.851417 2.39368 6.82637
RightArm  -26.3091 61.6738 47.0678
RightForeArm  173.922 56.9297 164.996
RightHand  -3.02261 8.00214 -26.1813
LeftUpLeg  9.53007 5.34188 3.33022
LeftLeg  3.23033 12.6123 -2.53858
LeftFoot  -4.43808 0.0116631 0.452474
LeftToes  1.06247e-005 4.65855e-005 -8.18501e-006
498
root  -59.6784 41.252 -22.6255 -6.17365 -0.900101 0.536224
RightUpLeg  8.60722 -9.01479 -7.9772
RightLeg  6.3646 -4.0719 2.31957
RightFoot  -5.33109 -0.0808083 0.704109
RightToes  0.00048216 0.542163 -0.142577
Spine  0.113794 3.68571 3.0685
Spine1  11.5467 5.33105 -4.69425
HEad  -54.1777 -10.7551 12.6173
LeftShoulder1  8.96919 -15.6788 -40.4747
LeftArm  -1.5571 22.2743 -28.2895
LeftForeArm  33.6638 -23.2587 -3.28724
LeftHand  -0.25398 0.0180481 5.50724
RightShoulder  0.855889 2.41715 6.84691
RightArm  -26.4683 61.5835 46.8544
RightForeArm  174.172 56.941 165.01
RightHand  -3.08183 8.15512 -26.3842
LeftUpLeg  9.52055 5.31964 3.33721
LeftLeg  3.27639 12.5377 -2.49311
LeftFoot  -4.45774 0.0155723 0.383237
LeftToes  1.06247e-005 4.65855e-005 -8.18501e-006
